<!DOCTYPE svg PUBLIC "-//W3C//DTD SVG 20010904//EN" "http://www.w3.org/TR/2001/REC-SVG-20010904/DTD/svg10.dtd">
<svg version="1.0" xmlns="http://www.w3.org/2000/svg" width="128px" height="128px" viewBox="0 0 1280 1280" preserveAspectRatio="xMidYMid meet">
<g id="layer101" fill="#6695b0" stroke="none">
 <path d="M464 1261 c-224 -65 -391 -237 -449 -461 -26 -100 -17 -281 18 -380 65 -181 219 -332 399 -391 62 -21 93 -24 208 -24 115 0 146 3 208 24 184 60 343 219 403 402 21 64 24 93 24 209 0 115 -3 146 -24 208 -59 180 -210 334 -391 399 -64 23 -93 27 -205 30 -102 2 -143 -1 -191 -16z"/>
 </g>
<g id="layer102" fill="#c70101" stroke="none">
 <path d="M464 1261 c-224 -65 -391 -237 -449 -461 -26 -100 -17 -281 18 -380 65 -181 219 -332 399 -391 62 -21 93 -24 208 -24 115 0 146 3 208 24 184 60 343 219 403 402 21 64 24 93 24 209 0 115 -3 146 -24 208 -59 180 -210 334 -391 399 -64 23 -93 27 -205 30 -102 2 -143 -1 -191 -16z m311 -206 c14 -13 25 -31 25 -40 0 -14 -4 -13 -26 4 -23 18 -41 21 -134 21 -93 0 -111 -3 -134 -21 -22 -17 -26 -18 -26 -4 0 9 11 27 25 40 23 24 31 25 135 25 104 0 112 -1 135 -25z m-295 -315 c0 -19 -7 -20 -89 -20 -49 0 -96 -3 -105 -6 -10 -4 -16 -1 -16 8 0 30 24 38 117 38 86 0 93 -1 93 -20z m524 -2 c5 -9 8 -18 6 -20 -3 -2 -51 -2 -107 0 -95 3 -103 5 -103 23 0 18 6 20 96 17 78 -2 99 -6 108 -20z"/>
 </g>
<g id="layer103" fill="#feffff" stroke="none">
 <path d="M505 1015 c-24 -23 -25 -29 -25 -160 l0 -135 -94 0 c-105 0 -127 -11 -110 -56 5 -14 78 -112 162 -219 156 -199 174 -214 226 -201 26 6 323 373 340 420 17 45 -5 56 -110 56 l-94 0 0 135 c0 131 -1 137 -25 160 -23 24 -31 25 -135 25 -104 0 -112 -1 -135 -25z"/>
 </g>

</svg>